<?xml version="1.0" encoding="UTF-8" standalone="no"?>
<!-- Created with Inkscape (http://www.inkscape.org/) -->

<svg
   xmlns:dc="http://purl.org/dc/elements/1.1/"
   xmlns:cc="http://creativecommons.org/ns#"
   xmlns:rdf="http://www.w3.org/1999/02/22-rdf-syntax-ns#"
   xmlns:svg="http://www.w3.org/2000/svg"
   xmlns="http://www.w3.org/2000/svg"
   xmlns:sodipodi="http://sodipodi.sourceforge.net/DTD/sodipodi-0.dtd"
   xmlns:inkscape="http://www.inkscape.org/namespaces/inkscape"
   id="svg2985"
   version="1.1"
   inkscape:version="0.48.5 r10040"
   width="1000.0001"
   height="512.58105"
   xml:space="preserve"
   sodipodi:docname="A.svg"><metadata
     id="metadata2991"><rdf:RDF><cc:Work
         rdf:about=""><dc:format>image/svg+xml</dc:format><dc:type
           rdf:resource="http://purl.org/dc/dcmitype/StillImage" /><dc:title></dc:title></cc:Work></rdf:RDF></metadata><defs
     id="defs2989"><clipPath
       clipPathUnits="userSpaceOnUse"
       id="clipPath3003"><path
         d="m 20.669,20.669 1150.866,0 0,583.937 -1150.866,0 0,-583.937 z"
         id="path3005"
         inkscape:connector-curvature="0" /></clipPath><linearGradient
       x1="0"
       y1="0"
       x2="1"
       y2="0"
       gradientUnits="userSpaceOnUse"
       gradientTransform="matrix(30.236766,0,0,-30.236766,129.55676,194.91598)"
       spreadMethod="pad"
       id="linearGradient3021"><stop
         style="stop-opacity:1;stop-color:#ffffff"
         offset="0"
         id="stop3023" /><stop
         style="stop-opacity:1;stop-color:#1959a6"
         offset="1"
         id="stop3025" /></linearGradient><linearGradient
       x1="0"
       y1="0"
       x2="1"
       y2="0"
       gradientUnits="userSpaceOnUse"
       gradientTransform="matrix(55.509908,0,0,-55.509908,104.27605,195.28503)"
       spreadMethod="pad"
       id="linearGradient3041"><stop
         style="stop-opacity:1;stop-color:#ffffff"
         offset="0"
         id="stop3043" /><stop
         style="stop-opacity:1;stop-color:#1959a6"
         offset="1"
         id="stop3045" /></linearGradient><linearGradient
       x1="0"
       y1="0"
       x2="1"
       y2="0"
       gradientUnits="userSpaceOnUse"
       gradientTransform="matrix(55.708644,0,0,-55.708644,104.19194,185.18793)"
       spreadMethod="pad"
       id="linearGradient3061"><stop
         style="stop-opacity:1;stop-color:#ffffff"
         offset="0"
         id="stop3063" /><stop
         style="stop-opacity:1;stop-color:#1959a6"
         offset="1"
         id="stop3065" /></linearGradient><linearGradient
       x1="0"
       y1="0"
       x2="1"
       y2="0"
       gradientUnits="userSpaceOnUse"
       gradientTransform="matrix(55.509559,0,0,-55.509559,104.13602,205.04895)"
       spreadMethod="pad"
       id="linearGradient3081"><stop
         style="stop-opacity:1;stop-color:#ffffff"
         offset="0"
         id="stop3083" /><stop
         style="stop-opacity:1;stop-color:#1959a6"
         offset="1"
         id="stop3085" /></linearGradient><clipPath
       clipPathUnits="userSpaceOnUse"
       id="clipPath3093"><path
         d="m 104.136,180.355 126.06,0 0,30.236 -126.06,0 0,-30.236 z"
         id="path3095"
         inkscape:connector-curvature="0" /></clipPath><clipPath
       clipPathUnits="userSpaceOnUse"
       id="clipPath3445"><path
         d="m 118.937,97.204 87.079,0 0,49.134 -87.079,0 0,-49.134 z"
         id="path3447"
         inkscape:connector-curvature="0" /></clipPath><clipPath
       clipPathUnits="userSpaceOnUse"
       id="clipPath3581"><path
         d="m 150.062,135.828 1.078,0 0,1.869 -1.078,0 0,-1.869 z"
         id="path3583"
         inkscape:connector-curvature="0" /></clipPath><clipPath
       clipPathUnits="userSpaceOnUse"
       id="clipPath3593"><path
         d="m 148.697,132.111 2.407,0 0,4.732 -2.407,0 0,-4.732 z"
         id="path3595"
         inkscape:connector-curvature="0" /></clipPath><clipPath
       clipPathUnits="userSpaceOnUse"
       id="clipPath3605"><path
         d="m 150.986,134.833 7.405,0 0,3.958 -7.405,0 0,-3.958 z"
         id="path3607"
         inkscape:connector-curvature="0" /></clipPath><clipPath
       clipPathUnits="userSpaceOnUse"
       id="clipPath3621"><path
         d="m 148.986,136.843 2,0 0,3.771 -2,0 0,-3.771 z"
         id="path3623"
         inkscape:connector-curvature="0" /></clipPath><clipPath
       clipPathUnits="userSpaceOnUse"
       id="clipPath3637"><path
         d="m 140.808,131.272 9.255,0 0,10.337 -9.255,0 0,-10.337 z"
         id="path3639"
         inkscape:connector-curvature="0" /></clipPath><clipPath
       clipPathUnits="userSpaceOnUse"
       id="clipPath3653"><path
         d="m 149.023,137.041 10.299,0 0,8.127 -10.299,0 0,-8.127 z"
         id="path3655"
         inkscape:connector-curvature="0" /></clipPath><clipPath
       clipPathUnits="userSpaceOnUse"
       id="clipPath3669"><path
         d="m 148.797,127.553 11.137,0 0,9.489 -11.137,0 0,-9.489 z"
         id="path3671"
         inkscape:connector-curvature="0" /></clipPath><clipPath
       clipPathUnits="userSpaceOnUse"
       id="clipPath3685"><path
         d="m 20.669,20.669 1150.866,0 0,583.937 -1150.866,0 0,-583.937 z"
         id="path3687"
         inkscape:connector-curvature="0" /></clipPath><clipPath
       clipPathUnits="userSpaceOnUse"
       id="clipPath3697"><path
         d="m 0,0 1192.205,0 0,625.276 L 0,625.276 0,0 z"
         id="path3699"
         inkscape:connector-curvature="0" /></clipPath><clipPath
       clipPathUnits="userSpaceOnUse"
       id="clipPath4201"><path
         inkscape:connector-curvature="0"
         d="m 0,0 1258.583,0 0,595.276 L 0,595.276 0,0 z"
         id="path4203" /></clipPath><clipPath
       clipPathUnits="userSpaceOnUse"
       id="clipPath5806"><path
         inkscape:connector-curvature="0"
         d="m 310.394,4.968 251.294,0 0,109.694 -251.294,0 0,-109.694 z"
         id="path5808" /></clipPath><clipPath
       clipPathUnits="userSpaceOnUse"
       id="clipPath5794"><path
         inkscape:connector-curvature="0"
         d="m 310.394,47.42 251.294,0 0,67.242 -251.294,0 0,-67.242 z"
         id="path5796" /></clipPath><clipPath
       clipPathUnits="userSpaceOnUse"
       id="clipPath5782"><path
         inkscape:connector-curvature="0"
         d="m 310.394,4.968 251.294,0 0,109.694 -251.294,0 0,-109.694 z"
         id="path5784" /></clipPath><clipPath
       clipPathUnits="userSpaceOnUse"
       id="clipPath5770"><path
         inkscape:connector-curvature="0"
         d="m 310.394,47.42 251.294,0 0,67.242 -251.294,0 0,-67.242 z"
         id="path5772" /></clipPath><clipPath
       clipPathUnits="userSpaceOnUse"
       id="clipPath5758"><path
         inkscape:connector-curvature="0"
         d="m 310.394,4.968 251.294,0 0,109.694 -251.294,0 0,-109.694 z"
         id="path5760" /></clipPath><clipPath
       clipPathUnits="userSpaceOnUse"
       id="clipPath5746"><path
         inkscape:connector-curvature="0"
         d="m 310.394,47.42 251.294,0 0,67.242 -251.294,0 0,-67.242 z"
         id="path5748" /></clipPath><clipPath
       clipPathUnits="userSpaceOnUse"
       id="clipPath5734"><path
         inkscape:connector-curvature="0"
         d="m 310.394,4.968 251.294,0 0,109.694 -251.294,0 0,-109.694 z"
         id="path5736" /></clipPath><clipPath
       clipPathUnits="userSpaceOnUse"
       id="clipPath5722"><path
         inkscape:connector-curvature="0"
         d="m 310.394,47.42 251.294,0 0,67.242 -251.294,0 0,-67.242 z"
         id="path5724" /></clipPath><clipPath
       clipPathUnits="userSpaceOnUse"
       id="clipPath5710"><path
         inkscape:connector-curvature="0"
         d="m 310.394,4.968 251.294,0 0,109.694 -251.294,0 0,-109.694 z"
         id="path5712" /></clipPath><clipPath
       clipPathUnits="userSpaceOnUse"
       id="clipPath5698"><path
         inkscape:connector-curvature="0"
         d="m 310.394,47.42 251.294,0 0,67.242 -251.294,0 0,-67.242 z"
         id="path5700" /></clipPath><clipPath
       clipPathUnits="userSpaceOnUse"
       id="clipPath5686"><path
         inkscape:connector-curvature="0"
         d="m 310.394,4.968 251.294,0 0,109.694 -251.294,0 0,-109.694 z"
         id="path5688" /></clipPath><clipPath
       clipPathUnits="userSpaceOnUse"
       id="clipPath5674"><path
         inkscape:connector-curvature="0"
         d="m 310.394,47.42 251.294,0 0,67.242 -251.294,0 0,-67.242 z"
         id="path5676" /></clipPath><clipPath
       clipPathUnits="userSpaceOnUse"
       id="clipPath5662"><path
         inkscape:connector-curvature="0"
         d="m 310.394,4.968 251.294,0 0,109.694 -251.294,0 0,-109.694 z"
         id="path5664" /></clipPath><clipPath
       clipPathUnits="userSpaceOnUse"
       id="clipPath5650"><path
         inkscape:connector-curvature="0"
         d="m 310.394,47.42 251.294,0 0,67.242 -251.294,0 0,-67.242 z"
         id="path5652" /></clipPath><clipPath
       clipPathUnits="userSpaceOnUse"
       id="clipPath5638"><path
         inkscape:connector-curvature="0"
         d="m 310.394,4.968 251.294,0 0,109.694 -251.294,0 0,-109.694 z"
         id="path5640" /></clipPath><clipPath
       clipPathUnits="userSpaceOnUse"
       id="clipPath5626"><path
         inkscape:connector-curvature="0"
         d="m 310.394,47.42 251.294,0 0,67.242 -251.294,0 0,-67.242 z"
         id="path5628" /></clipPath><clipPath
       clipPathUnits="userSpaceOnUse"
       id="clipPath5614"><path
         inkscape:connector-curvature="0"
         d="m 310.394,4.968 251.294,0 0,109.694 -251.294,0 0,-109.694 z"
         id="path5616" /></clipPath><clipPath
       clipPathUnits="userSpaceOnUse"
       id="clipPath5602"><path
         inkscape:connector-curvature="0"
         d="m 310.394,47.42 251.294,0 0,67.242 -251.294,0 0,-67.242 z"
         id="path5604" /></clipPath><clipPath
       clipPathUnits="userSpaceOnUse"
       id="clipPath5590"><path
         inkscape:connector-curvature="0"
         d="m 310.394,4.968 251.294,0 0,109.694 -251.294,0 0,-109.694 z"
         id="path5592" /></clipPath><clipPath
       clipPathUnits="userSpaceOnUse"
       id="clipPath5578"><path
         inkscape:connector-curvature="0"
         d="m 310.394,47.42 251.294,0 0,67.242 -251.294,0 0,-67.242 z"
         id="path5580" /></clipPath><clipPath
       clipPathUnits="userSpaceOnUse"
       id="clipPath5566"><path
         inkscape:connector-curvature="0"
         d="m 310.394,4.968 251.294,0 0,109.694 -251.294,0 0,-109.694 z"
         id="path5568" /></clipPath><clipPath
       clipPathUnits="userSpaceOnUse"
       id="clipPath5554"><path
         inkscape:connector-curvature="0"
         d="m 310.394,47.42 251.294,0 0,67.242 -251.294,0 0,-67.242 z"
         id="path5556" /></clipPath><clipPath
       clipPathUnits="userSpaceOnUse"
       id="clipPath5542"><path
         inkscape:connector-curvature="0"
         d="m 310.394,4.968 251.294,0 0,109.694 -251.294,0 0,-109.694 z"
         id="path5544" /></clipPath><clipPath
       clipPathUnits="userSpaceOnUse"
       id="clipPath5530"><path
         inkscape:connector-curvature="0"
         d="m 310.394,47.42 251.294,0 0,67.242 -251.294,0 0,-67.242 z"
         id="path5532" /></clipPath><clipPath
       clipPathUnits="userSpaceOnUse"
       id="clipPath5442"><path
         inkscape:connector-curvature="0"
         d="m 310.394,4.968 251.294,0 0,109.694 -251.294,0 0,-109.694 z"
         id="path5444" /></clipPath><clipPath
       clipPathUnits="userSpaceOnUse"
       id="clipPath8876"><path
         inkscape:connector-curvature="0"
         d="m 1212.583,63.11 0,-48.881 76.42,0 0,48.881"
         id="path8878" /></clipPath><clipPath
       clipPathUnits="userSpaceOnUse"
       id="clipPath11040"><path
         inkscape:connector-curvature="0"
         d="m 258.06,758.268 120.269,0 0,72 -120.269,0 0,-72 z"
         id="path11042" /></clipPath><clipPath
       clipPathUnits="userSpaceOnUse"
       id="clipPath11412"><path
         inkscape:connector-curvature="0"
         d="m 344.126,9.298 222.803,0 0,83.3 -222.803,0 0,-83.3 z"
         id="path11414" /></clipPath><clipPath
       clipPathUnits="userSpaceOnUse"
       id="clipPath11388"><path
         inkscape:connector-curvature="0"
         d="m 344.126,32.842 222.803,0 0,59.756 -222.803,0 0,-59.756 z"
         id="path11390" /></clipPath><clipPath
       clipPathUnits="userSpaceOnUse"
       id="clipPath12045"><path
         inkscape:connector-curvature="0"
         d="m 42.0056,525.99135 432.99577,0 0,573.99435 -432.99577,0 0,-573.99435 z"
         clip-rule="evenodd"
         id="path12047" /></clipPath></defs><sodipodi:namedview
     pagecolor="#ffffff"
     bordercolor="#666666"
     borderopacity="1"
     objecttolerance="10"
     gridtolerance="10"
     guidetolerance="10"
     inkscape:pageopacity="0"
     inkscape:pageshadow="2"
     inkscape:window-width="1055"
     inkscape:window-height="1035"
     id="namedview2987"
     showgrid="false"
     fit-margin-left="0.5"
     fit-margin-bottom="0.5"
     fit-margin-top="0.5"
     fit-margin-right="0.5"
     inkscape:zoom="0.38429683"
     inkscape:cx="775.09708"
     inkscape:cy="159.40088"
     inkscape:window-x="857"
     inkscape:window-y="-19"
     inkscape:window-maximized="0"
     inkscape:current-layer="g2993" /><g
     id="g2993"
     inkscape:groupmode="layer"
     inkscape:label="Flyer_Groninger_Energiepremie"
     transform="matrix(1.25,0,0,-1.25,-418.31333,1630.8097)"><path
       inkscape:connector-curvature="0"
       id="path12039"
       style="fill:#e63036;fill-opacity:1;fill-rule:nonzero;stroke:none"
       d="m 451.17241,1145.1321 39.6115,0 -7.21154,-47.5407 c -79.9556,-37.9196 -113.89585,41.7765 -111.10582,80.0313 l -37.41589,0 c 2.3632,-44.1097 18.1133,-75.564 39.87073,-95.9494 3.50711,-3.1558 8.1574,-6.922 8.1574,-6.922 40.89285,-31.3635 97.84056,-28.5575 129.81354,-0.205 l 15.62861,103.0705 -72.40827,0 -4.94026,-32.492 z m 140.41085,33.3 c -1.93652,0.5855 -3.99512,0.5855 -5.88554,0.5855 -11.67915,0 -21.3767,-11.786 -23.23653,-18.7695 l -0.30592,0 2.43961,17.0306 -17.35113,0 -10.68821,-74.9243 19.5466,0 3.93408,27.5065 c 1.52434,10.7644 4.33032,30.5541 20.23294,30.5541 3.50653,0 6.90694,-0.6001 8.5229,-1.5999 l 2.79047,19.6229 z m 42.5239,0.5855 c -22.16917,0 -41.34998,-14.9725 -44.87232,-39.7038 -3.06433,-21.5287 8.91987,-38.6968 33.71132,-38.6968 24.9292,0 41.80725,17.1681 44.87276,38.6968 3.52175,24.7313 -11.40515,39.7038 -33.71176,39.7038 m 13.6309,-37.3721 c -1.76849,-12.5164 -7.60821,-25.9038 -22.65689,-25.9038 -14.86615,0 -16.87864,13.5235 -15.11001,25.9038 1.60074,11.2078 9.30044,22.2459 21.97128,22.2459 12.85307,0 17.42695,-10.7644 15.79562,-22.2459 m 83.05096,37.3721 c -10.20005,0 -18.99755,-3.3402 -26.34697,-11.9236 l -0.27372,0 1.433,10.1847 -18.5252,0 -10.65776,-74.9243 19.5463,0 5.19934,36.6842 c 1.37152,9.5757 6.6177,24.8528 20.76603,24.8528 12.53413,0 10.93295,-12.3657 9.62173,-21.5287 l -5.70228,-40.0083 19.54645,0 6.73963,47.2963 c 2.39336,16.849 -3.55264,29.3669 -21.3464,29.3669 m 42.1584,-17.3672 -8.46201,-59.296 19.54659,0 6.46489,45.4666 c -5.41276,4.7571 -12.18239,9.8187 -17.54933,13.8294"
       sodipodi:nodetypes="cccccccccccccscccccccscccccscccscscccccccccscccccccccc" /><g
       transform="matrix(14.637368,0,0,14.637368,-928.19998,-7077.4459)"
       clip-path="url(#clipPath12045)"
       id="g12043"
       style="fill:#1c1c1a;fill-opacity:1"><path
         inkscape:connector-curvature="0"
         id="path12049"
         style="fill:#1c1c1a;fill-opacity:1;fill-rule:nonzero;stroke:none"
         d="m 100.84875,570.76488 0.10315,0.67917 c -3.86351,1.54477 -6.97906,1.57289 -9.25824,0.076 -2.07495,-1.36354 -2.92288,-3.73851 -3.01348,-5.08537 l 0.68124,0 c 0.0927,1.08542 0.80101,3.27496 2.70831,4.52913 2.10935,1.38644 5.06555,1.31768 8.77902,-0.19896 m 19.88007,-13.13321 c 2.63644,-3.6906 3.33955,-7.12702 1.92497,-9.43219 -0.76042,-1.24167 -2.06871,-2.09374 -3.88328,-2.5354 -4.58017,-1.11145 -11.41139,0.57603 -17.82797,4.40724 -2.57706,1.53854 -5.06972,3.68121 -6.32598,4.82184 -0.34584,-0.008 -0.69685,0.009 -1.04582,0.05 0.89168,-0.83853 3.89165,-3.57498 7.0218,-5.44267 6.56452,-3.9187 13.59052,-5.63742 18.33939,-4.48537 1.96872,0.47812 3.45624,1.45833 4.30205,2.83748 1.50834,2.45935 0.88751,6.00516 -1.68752,9.77907 l -0.81764,0 z m 0.93021,1.1979 1.33535,0 0.46047,3.23124 c 0.16351,1.15101 -0.24271,2.00517 -1.45834,2.00517 -0.69686,0 -1.29792,-0.22707 -1.79894,-0.81352 l -0.0208,0 0.1,0.69478 -1.26665,0 -0.72914,-5.11767 1.33539,0 0.35727,2.50519 c 0.0937,0.6552 0.45002,1.69791 1.41664,1.69791 0.85731,0 0.7469,-0.84375 0.65732,-1.46979 l -0.38852,-2.73331 z m 6.67804,4.42289 -0.0208,0 c -0.28543,0.58645 -0.78025,0.81352 -1.45733,0.81352 -1.53537,0 -2.37494,-1.41873 -2.55095,-2.65102 -0.19481,-1.37185 0.20935,-2.58539 1.72494,-2.58539 0.74584,0 1.39894,0.37813 1.71041,0.81667 l 0.0187,0 c -0.12499,-0.88646 -0.35205,-1.98853 -1.82706,-1.98853 -0.41771,0 -1.05415,0.22918 -1.43022,0.44896 l -0.27185,-1.1354 c 0.60002,-0.26772 1.19583,-0.34688 1.72394,-0.34688 2.15204,0 2.89685,1.3125 3.09582,2.70309 l 0.65831,4.61976 -1.27603,0 -0.0979,-0.69478 z m -0.31874,-1.80728 c -0.12189,-0.85625 -0.56353,-1.58228 -1.40104,-1.58228 -0.76664,0 -1.01351,0.85521 -0.91351,1.55206 0.11145,0.78438 0.51975,1.61771 1.42598,1.61771 0.77712,0 1.01355,-0.71459 0.88857,-1.58749 m 5.03639,2.6208 c -1.59374,0 -2.55515,-1.22185 -2.7666,-2.70206 -0.23856,-1.6781 0.60936,-2.65309 2.3031,-2.65309 0.71664,0 1.29475,0.13959 1.82184,0.40727 l 0.15313,1.08437 c -0.53749,-0.27915 -1.13019,-0.51665 -1.7781,-0.51665 -0.82604,0 -1.3375,0.46562 -1.27916,1.29062 l 3.54684,0 c 0.25415,1.78851 -0.0979,3.08954 -2.00105,3.08954 m 0.85522,-2.17497 -2.27081,0 c 0.15625,0.68541 0.60936,1.20207 1.35725,1.20207 0.74689,0 0.96563,-0.55625 0.91356,-1.20207 m 5.50096,2.17497 c -0.69685,0 -1.29788,-0.22707 -1.79893,-0.81352 l -0.0208,0 0.1,0.69478 -1.26561,0 -0.72917,-5.11767 1.33437,0 0.35727,2.50519 c 0.0937,0.6552 0.45105,1.69791 1.41772,1.69791 0.85623,0 0.74684,-0.84375 0.65723,-1.46979 l -0.38849,-2.73331 1.33331,0 0.4604,3.23124 c 0.1646,1.15101 -0.24165,2.00517 -1.45729,2.00517 m -36.00171,2.4906 c 0.66041,0 1.07602,0.11043 1.31771,0.1875 l 0.31354,2.19789 -1.49895,0 -0.0708,-0.49478 0.89168,0 -0.18231,-1.2854 c -0.15625,-0.0281 -0.27082,-0.0729 -0.68956,-0.0729 -0.88021,0 -1.50417,0.66041 -1.36251,1.65416 0.13543,0.94478 0.88646,1.6531 1.86251,1.6531 0.54686,0 0.85518,-0.0969 1.12497,-0.29062 l 0.13542,0.61145 c -0.33438,0.12084 -0.5948,0.21145 -1.21462,0.21145 -1.29266,0 -2.36242,-0.86664 -2.54888,-2.16663 -0.19167,-1.34583 0.5781,-2.2052 1.92185,-2.2052 m 18.31336,1.50102 c 0.10728,0.75313 0.47397,1.27188 1.12291,1.27188 0.49374,-0.0302 0.60208,-0.38124 0.5,-1.10208 l -0.22812,-1.59788 0.56979,0 0.26146,1.83433 c 0.11873,0.83022 -0.16877,1.32604 -0.97084,1.32604 -0.43019,0 -0.87396,-0.21146 -1.09477,-0.5625 l -0.0104,0 0.0698,0.48957 -0.55307,0 -0.43958,-3.08744 0.56978,0 0.20311,1.42808 z m 3.24789,-0.60519 c -0.0885,-0.61666 0.23645,-0.89583 0.82499,-0.89583 0.18231,0 0.3656,0.0479 0.4979,0.0854 l 0.0698,0.48334 c -0.0937,-0.0542 -0.22917,-0.10834 -0.40416,-0.10834 -0.26147,0 -0.45207,0.19375 -0.40104,0.55102 l 0.23958,1.68958 0.81977,0 0.0657,0.45936 -0.81876,0 0.12709,0.89689 -0.59584,-0.18126 -0.10208,-0.71563 -0.69894,0 -0.0646,-0.45936 0.69792,0 -0.2573,-1.80519 z m -5.94995,-0.89583 c 0.51041,0 0.77709,0.12083 1.0073,0.20001 l 0.0802,0.56978 c -0.15526,-0.11562 -0.62084,-0.30937 -0.99686,-0.30937 -0.5396,0 -0.96045,0.41771 -0.87395,1.0302 l 2.21038,0 c 0.14167,0.99372 -0.0854,1.74269 -1.1177,1.74269 -0.87394,0 -1.54376,-0.64792 -1.67393,-1.56249 -0.14165,-1.00519 0.26668,-1.67082 1.36456,-1.67082 m 0.23126,2.7729 c 0.49267,0 0.71561,-0.38751 0.65,-0.86041 l -1.60417,0 c 0.099,0.40103 0.39689,0.86041 0.95417,0.86041 m -3.54476,-2.7729 c 0.5104,0 0.77603,0.12083 1.00518,0.20001 l 0.0813,0.56978 c -0.15624,-0.11562 -0.62084,-0.30937 -0.99689,-0.30937 -0.53955,0 -0.95934,0.41771 -0.87286,1.0302 l 2.20935,0 c 0.14166,0.99372 -0.0865,1.74269 -1.11776,1.74269 -0.87498,0 -1.54264,-0.64792 -1.67285,-1.56249 -0.1427,-1.00519 0.26563,-1.67082 1.36457,-1.67082 m 0.23126,2.7729 c 0.49165,0 0.71458,-0.38751 0.64789,-0.86041 l -1.60311,0 c 0.10105,0.40103 0.39583,0.86041 0.95522,0.86041 m -8.8812,-2.7729 c 0.50833,0 0.77501,0.12083 1.00418,0.20001 l 0.0813,0.56978 c -0.15625,-0.11562 -0.6198,-0.30937 -0.99688,-0.30937 -0.54063,0 -0.9604,0.41771 -0.87292,1.0302 l 2.20937,0 c 0.14062,0.99372 -0.0854,1.74269 -1.11771,1.74269 -0.87393,0 -1.54372,-0.64792 -1.67288,-1.56249 -0.14376,-1.00519 0.26562,-1.67082 1.36558,-1.67082 m 0.22917,2.7729 c 0.49273,0 0.71668,-0.38751 0.64896,-0.86041 l -1.60205,0 c 0.0989,0.40103 0.39478,0.86041 0.95309,0.86041 m 2.48436,-1.1427 c 0.0823,0.575 0.39377,1.1427 0.97709,1.1427 0.4604,0 0.48437,-0.47812 0.42915,-0.86041 l -0.26146,-1.83955 0.57083,0 0.22084,1.55726 c 0.0823,0.575 0.39478,1.1427 0.97604,1.1427 0.4625,0 0.48436,-0.47812 0.43125,-0.86041 l -0.26251,-1.83955 0.57083,0 0.28229,1.97914 c 0.0958,0.6729 -0.1167,1.18123 -0.90729,1.18123 -0.27918,0 -0.76876,-0.15729 -1.04372,-0.59792 -0.10417,0.41667 -0.43751,0.59792 -0.79478,0.59792 -0.45522,0 -0.78856,-0.16355 -1.0573,-0.52083 l -0.0136,0 0.0646,0.4479 -0.53433,0 -0.44063,-3.08744 0.57083,0 0.22186,1.55726 z m 18.8238,1.60311 c -0.875,0 -1.54374,-0.64792 -1.67395,-1.56249 -0.14374,-1.00519 0.26458,-1.67082 1.36352,-1.67082 0.51144,0 0.77709,0.12083 1.00624,0.20001 l 0.0813,0.56978 c -0.15623,-0.11562 -0.62083,-0.30937 -0.99685,-0.30937 -0.54064,0 -0.96042,0.41771 -0.87293,1.0302 l 2.21041,0 c 0.14062,0.99372 -0.0865,1.74269 -1.11769,1.74269 m 0.57083,-1.32082 -1.60207,0 c 0.0979,0.40103 0.39374,0.86041 0.9531,0.86041 0.49063,0 0.71562,-0.38751 0.64897,-0.86041 m -12.94678,-5.5885 c 0.36771,-0.27396 0.82919,-0.61873 1.2,-0.94373 l 0.28645,2.0104 -1.33542,0" /></g></g></svg>